<svg xmlns="http://www.w3.org/2000/svg" viewBox="0 0 1170 1170" width="20" height="20">
    <path d="M1156.8 544.5c-2.6-12.9-6.6-25.6-11.7-37.8-5-11.9-11.3-23.4-18.5-34.2-7.2-10.7-15.5-20.7-24.6-29.8-9.1-9.1-19.1-17.4-29.8-24.6-10.8-7.3-22.2-13.5-34.2-18.5-12.1-5.1-24.8-9.1-37.8-11.7-13.3-2.7-26.9-4.1-40.5-4.1-13.6 0-27.3 1.4-40.5 4.1-12.9 2.6-25.6 6.6-37.8 11.7-11.9 5-23.4 11.3-34.2 18.5-4.1 2.7-8 5.7-11.9 8.7-3.9-3-7.8-5.9-11.9-8.7-10.8-7.3-22.2-13.5-34.2-18.5-12.1-5.1-24.8-9.1-37.8-11.7-13.2-2.7-26.9-4.1-40.5-4.1-13.6 0-27.3 1.4-40.5 4.1-12.9 2.6-25.6 6.6-37.8 11.7-11.9 5-23.4 11.3-34.2 18.5-4.3 2.9-8.5 6-12.6 9.2-4.1-3.2-8.3-6.3-12.5-9.2-10.8-7.3-22.2-13.5-34.2-18.5-12.1-5.1-24.8-9.1-37.8-11.7-13.2-2.7-26.9-4.1-40.5-4.1-13.6 0-27.3 1.4-40.5 4.1-12.9 2.6-25.6 6.6-37.8 11.7-11.9 5-23.4 11.3-34.2 18.5-4.3 2.9-8.4 5.9-12.4 9.1-4-3.2-8.2-6.2-12.4-9.1-10.8-7.3-22.2-13.5-34.2-18.5-12.1-5.1-24.8-9.1-37.8-11.7-13.2-2.7-26.9-4.1-40.5-4.1-13.6 0-27.3 1.4-40.5 4.1-12.9 2.6-25.6 6.6-37.8 11.7-11.9 5-23.4 11.3-34.2 18.5-10.7 7.2-20.7 15.5-29.8 24.6-9.1 9.1-17.4 19.1-24.6 29.8-6.9 10.8-13.1 22.3-18.1 34.2-5.1 12.1-9.1 24.8-11.7 37.8-2.7 13.2-4.1 26.9-4.1 40.5 0 13.6 1.4 27.3 4.1 40.5 2.6 12.9 6.6 25.6 11.7 37.7 5 11.9 11.3 23.4 18.5 34.2 7.2 10.6 15.5 20.7 24.6 29.8 9.1 9.1 19.1 17.4 29.8 24.6 10.8 7.3 22.2 13.5 34.2 18.5 12.1 5.1 24.8 9.1 37.8 11.7 13.2 2.7 26.9 4.1 40.5 4.1 13.6 0 27.3-1.4 40.5-4.1 12.9-2.6 25.6-6.6 37.8-11.7 11.9-5 23.4-11.3 34.2-18.5 4.2-2.9 8.4-5.9 12.4-9.1 4 3.2 8.2 6.2 12.4 9.1 10.8 7.3 22.2 13.5 34.2 18.5 12.1 5.1 24.8 9.1 37.7 11.7 13.2 2.7 26.9 4.1 40.5 4.1 13.6 0 27.3-1.4 40.5-4.1 12.9-2.6 25.6-6.6 37.8-11.7 11.9-5 23.4-11.3 34.2-18.5 4.3-2.9 8.5-6 12.6-9.2 4.1 3.2 8.3 6.3 12.6 9.2 10.8 7.3 22.2 13.5 34.2 18.5 12.1 5.1 24.8 9.1 37.8 11.7 13.2 2.7 26.9 4.1 40.5 4.1 13.6 0 27.3-1.4 40.5-4.1 12.9-2.6 25.6-6.6 37.8-11.7 11.9-5 23.4-11.3 34.2-18.5 4.1-2.7 8-5.7 11.9-8.7 3.9 3 7.8 5.9 11.9 8.7 10.8 7.3 22.2 13.5 34.2 18.5 12.1 5.1 24.8 9.1 37.7 11.7 13.2 2.7 26.9 4.1 40.5 4.1 13.6 0 27.3-1.4 40.5-4.1 12.9-2.6 25.6-6.6 37.8-11.7 11.9-5 23.4-11.3 34.2-18.5 10.7-7.2 20.7-15.5 29.8-24.6 9.1-9.1 17.4-19.1 24.6-29.8 7.3-10.8 13.5-22.2 18.5-34.2 5.1-12.1 9.1-24.8 11.7-37.8 2.7-13.3 4.1-26.9 4.1-40.5-.3-13.5-1.7-27.2-4.4-40.4zM123.6 455c8.4-5.7 17.3-10.5 26.6-14.5 9.5-4 19.4-7.1 29.4-9.1 10.3-2.1 21-3.2 31.6-3.2 10.6 0 21.3 1.1 31.6 3.2 10.1 2.1 20 5.1 29.4 9.1 9.3 3.9 18.3 8.8 26.6 14.5 1.8 1.2 3.6 2.5 5.4 3.8-3.6 4.4-7 9-10.1 13.7-7.3 10.8-13.5 22.2-18.5 34.2-5.1 12.1-9.1 24.8-11.7 37.8-2.7 13.2-4.1 26.9-4.1 40.5 0 13.6 1.4 27.3 4.1 40.5 2.6 12.9 6.6 25.6 11.7 37.7 5 11.9 11.3 23.4 18.5 34.2 3.2 4.7 6.6 9.3 10.2 13.7-1.8 1.3-3.6 2.6-5.5 3.9-8.4 5.7-17.3 10.5-26.6 14.5-9.5 4-19.4 7.1-29.4 9.1-10.3 2.1-21 3.2-31.6 3.2-10.6 0-21.3-1.1-31.6-3.2-10.1-2.1-20-5.1-29.4-9.1-9.3-3.9-18.2-8.8-26.6-14.5-8.3-5.6-16.1-12.1-23.2-19.1-7.1-7.1-13.5-14.9-19.1-23.2-5.7-8.4-10.5-17.3-14.5-26.6-4-9.5-7.1-19.4-9.1-29.4-2.1-10.3-3.2-21-3.2-31.6 0-10.6 1.1-21.3 3.2-31.6 2.1-10.1 5.1-20 9.1-29.4 3.9-9.3 8.8-18.3 14.5-26.6 5.6-8.3 12.1-16.1 19.1-23.2 7.1-7.2 14.9-13.7 23.2-19.3zM331 672.7c-5.7-8.4-10.5-17.3-14.5-26.6-4-9.5-7.1-19.4-9.1-29.4-2.1-10.3-3.2-21-3.2-31.6 0-10.6 1.1-21.3 3.2-31.6 2.1-10.1 5.1-20 9.1-29.4 3.9-9.3 8.8-18.3 14.5-26.6 1.6-2.4 3.4-4.8 5.2-7.2 1.8 2.4 3.5 4.8 5.2 7.2 5.7 8.4 10.5 17.3 14.5 26.6 4 9.5 7.1 19.4 9.1 29.4 2.1 10.3 3.2 21 3.2 31.6 0 10.6-1.1 21.3-3.2 31.6-2.1 10.1-5.1 20-9.1 29.4-3.9 9.3-8.8 18.3-14.5 26.6-1.6 2.4-3.4 4.8-5.2 7.2-1.8-2.3-3.6-4.7-5.2-7.2zm47.1 24.8c7.3-10.8 13.5-22.2 18.5-34.2 5.1-12.1 9.1-24.8 11.7-37.8 2.7-13.2 4.1-26.9 4.1-40.5 0-13.6-1.4-27.3-4.1-40.5-2.6-12.9-6.6-25.6-11.7-37.8-5-11.9-11.3-23.4-18.5-34.2-3.2-4.7-6.6-9.3-10.2-13.7 1.8-1.3 3.6-2.6 5.4-3.8 8.4-5.7 17.3-10.5 26.6-14.5 9.5-4 19.4-7.1 29.4-9.1 10.3-2.1 21-3.2 31.6-3.2 10.6 0 21.3 1.1 31.6 3.2 10.1 2.1 20 5.1 29.4 9.1 9.3 3.9 18.3 8.8 26.6 14.5 1.9 1.3 3.8 2.6 5.6 4-3.5 4.4-6.9 8.9-10 13.5-7.3 10.8-13.5 22.2-18.5 34.2-5.1 12.1-9.1 24.8-11.7 37.8-2.7 13.2-4.1 26.9-4.1 40.5 0 13.6 1.4 27.3 4.1 40.5 2.6 12.9 6.6 25.6 11.7 37.7 5 11.9 11.3 23.4 18.5 34.2 3.2 4.7 6.5 9.2 10.1 13.6-1.9 1.4-3.7 2.7-5.7 4-8.4 5.7-17.3 10.5-26.6 14.5-9.5 4-19.4 7.1-29.4 9.1-10.3 2.1-21 3.2-31.6 3.2-10.6 0-21.3-1.1-31.6-3.2-10.1-2.1-20-5.1-29.4-9.1-9.3-3.9-18.2-8.8-26.6-14.5-1.8-1.2-3.7-2.5-5.4-3.9 3.6-4.3 7-8.9 10.2-13.6zM581 672.7c-5.7-8.4-10.5-17.3-14.5-26.6-4-9.5-7.1-19.4-9.1-29.4-2.1-10.3-3.2-21-3.2-31.6 0-10.6 1.1-21.3 3.2-31.6 2.1-10.1 5.1-20 9.1-29.4 3.9-9.3 8.8-18.3 14.5-26.6 1.6-2.4 3.3-4.7 5-7 1.7 2.3 3.4 4.6 5 7 5.7 8.4 10.5 17.3 14.5 26.6 4 9.5 7.1 19.4 9.1 29.4 2.1 10.3 3.2 21 3.2 31.6 0 10.6-1.1 21.3-3.2 31.6-2.1 10.1-5.1 20-9.1 29.4-3.9 9.3-8.8 18.3-14.5 26.6-1.6 2.4-3.3 4.7-5 7-1.7-2.3-3.4-4.6-5-7zm46.8 24.8c7.3-10.8 13.5-22.2 18.5-34.2 5.1-12.1 9.1-24.8 11.7-37.8 2.7-13.2 4.1-26.9 4.1-40.5 0-13.6-1.4-27.3-4.1-40.5-2.6-12.9-6.6-25.6-11.7-37.8-5-11.9-11.3-23.4-18.5-34.2-3.1-4.7-6.5-9.2-10-13.6 1.8-1.4 3.7-2.7 5.6-4 8.4-5.7 17.3-10.5 26.6-14.5 9.5-4 19.4-7.1 29.4-9.1 10.3-2.1 21-3.2 31.6-3.2 10.6 0 21.3 1.1 31.6 3.2 10.1 2.1 20 5.1 29.4 9.1 9.3 3.9 18.3 8.8 26.6 14.5 1.6 1.1 3.2 2.2 4.7 3.3-3.7 4.6-7.2 9.3-10.5 14.2-7.3 10.8-13.5 22.2-18.5 34.2-5.1 12.1-9.1 24.8-11.7 37.8-2.7 13.2-4.1 26.9-4.1 40.5 0 13.6 1.4 27.3 4.1 40.5 2.6 12.9 6.6 25.6 11.7 37.7 5 11.9 11.3 23.4 18.5 34.2 3.3 4.9 6.8 9.6 10.6 14.2-1.6 1.2-3.2 2.3-4.8 3.4-8.4 5.7-17.3 10.5-26.6 14.5-9.5 4-19.4 7.1-29.4 9.1-10.3 2.1-21 3.2-31.6 3.2-10.6 0-21.3-1.1-31.6-3.2-10.1-2.1-20-5.1-29.4-9.1-9.3-3.9-18.2-8.8-26.6-14.5-1.9-1.3-3.8-2.6-5.6-4 3.5-4.2 6.8-8.8 10-13.4zm201.9-24.8c-5.7-8.4-10.5-17.3-14.5-26.6-4-9.5-7.1-19.4-9.1-29.4-2.1-10.3-3.2-21-3.2-31.6 0-10.6 1.1-21.3 3.2-31.6 2.1-10.1 5.1-20 9.1-29.4 3.9-9.3 8.8-18.3 14.5-26.6 1.8-2.7 3.7-5.3 5.7-7.9 2 2.6 3.9 5.2 5.7 7.9 5.7 8.4 10.5 17.3 14.5 26.6 4 9.5 7.1 19.4 9.1 29.4 2.1 10.3 3.2 21 3.2 31.6 0 10.6-1.1 21.3-3.2 31.6-2.1 10.1-5.1 20-9.1 29.4-3.9 9.3-8.8 18.3-14.5 26.6-1.8 2.7-3.7 5.3-5.7 7.9-2-2.6-3.9-5.2-5.7-7.9zm48.1 24.8c7.3-10.8 13.5-22.2 18.5-34.2 5.1-12.1 9.1-24.8 11.7-37.8 2.7-13.2 4.1-26.9 4.1-40.5 0-13.6-1.4-27.3-4.1-40.5-2.6-12.9-6.6-25.6-11.7-37.8-5-11.9-11.3-23.4-18.5-34.2-3.3-4.9-6.8-9.6-10.5-14.2 1.6-1.1 3.2-2.3 4.8-3.4 8.4-5.7 17.3-10.5 26.6-14.5 9.5-4 19.4-7.1 29.4-9.1 10.3-2.1 21-3.2 31.6-3.2 10.6 0 21.3 1.1 31.6 3.2 10.1 2.1 20 5.1 29.4 9.1 9.3 3.9 18.3 8.8 26.6 14.5 8.3 5.6 16.1 12.1 23.2 19.2 7.1 7.1 13.5 14.9 19.1 23.2 5.7 8.4 10.5 17.3 14.5 26.6 4 9.5 7.1 19.4 9.1 29.4 2.1 10.3 3.2 21 3.2 31.6 0 10.6-1.1 21.3-3.2 31.6-2.1 10.1-5.1 20-9.1 29.4-3.9 9.3-8.8 18.3-14.5 26.6-5.6 8.3-12.1 16.1-19.1 23.2s-14.9 13.5-23.2 19.1c-8.4 5.7-17.3 10.5-26.6 14.5-9.5 4-19.4 7.1-29.4 9.1-10.3 2.1-21 3.2-31.6 3.2-10.6 0-21.3-1.1-31.6-3.2-10.1-2.1-20-5.1-29.4-9.1-9.3-3.9-18.2-8.8-26.6-14.5-1.6-1.1-3.2-2.2-4.8-3.4 3.7-4.3 7.2-9 10.5-13.9z"/>
</svg>
