<svg viewBox="0 0 550 550" xmlns="http://www.w3.org/2000/svg"><defs><linearGradient gradientUnits="userSpaceOnUse" id="a" x1="178.73" x2="272.84" y1="185.83" y2="282.36"><stop offset="0" stop-color="#46bee1"/><stop offset=".62" stop-color="#3394bc"/><stop offset="1" stop-color="#2678a3"/></linearGradient><linearGradient gradientUnits="userSpaceOnUse" id="b" x1="270.43" x2="369.9" y1="284.56" y2="374.94"><stop offset="0" stop-color="#3091ba"/><stop offset="1" stop-color="#00448b"/></linearGradient></defs><g data-name="Layer 4"><path d="M272.61 51.67c-126.13 0-228.73 102.61-228.73 228.72s102.6 228.72 228.73 228.72 228.72-102.62 228.72-228.72S398.72 51.67 272.61 51.67Zm0 451.13C150 502.8 50.2 403 50.2 280.39S150 58 272.61 58 495 157.74 495 280.39 395.25 502.8 272.61 502.8Z"/><path d="M142.23 190.6c.23.18.47.38.69.53 0 0 .17-.15.18-.18 4.46-5.57 8.93-11.16 13.38-16.7 1.63-2 3.27-4.07 4.89-6.11a7.08 7.08 0 0 0 1-7.12 6.93 6.93 0 0 0-6.46-4 7.32 7.32 0 0 0-5.55 3.09l-5.92 7.4c-4 5-8.1 10.1-12.12 15.15 2.09 1.69 4.2 3.36 6.29 5.06 1.21.91 2.39 1.89 3.62 2.88Z"/><path d="M272.61 62C152 62 54.18 159.76 54.18 280.39S152 498.82 272.61 498.82 491.05 401 491.05 280.39 393.24 62 272.61 62Zm-35.28 13.6 20.48-2.26 14.8 43.21 14.8-43.21 20.47 2.26 2.25 61.4-15.92-2.26-1.53-41-14.39 41H266.9l-14.4-41-1.52 41-15.91 2.26ZM99.44 176.75c-1.64-1.34-3.27-2.67-4.93-4a5.08 5.08 0 0 1-.6-.49l.86-1.05c4.24-5.32 8.47-10.61 12.74-15.9q7.41-9.3 14.83-18.55c1-1.16 1.9-2.35 2.85-3.55a15.15 15.15 0 0 1 6.39-4.63A14.82 14.82 0 0 1 151.11 139a15.76 15.76 0 0 1-.35 8.21c.37-.3.72-.63 1.09-.92a16.53 16.53 0 0 1 26.23 11.35 17 17 0 0 1-.54 6.53c-1.25 4.09-4.15 7.2-6.77 10.43q-7.61 9.54-15.24 19c-4.21 5.31-8.47 10.58-12.69 15.88-.33.4-.63.79-1 1.17-.06.1-.42-.28-.49-.35-1.58-1.27-3.15-2.5-4.72-3.77l-18.52-14.83c-6.19-4.96-12.42-10-18.67-14.95Zm173.17 240.18a136.53 136.53 0 1 1 136.51-136.54 136.53 136.53 0 0 1-136.51 136.54Zm130-207.11-7.84-13.42 27-35.46-40.47 18.57L369.93 169l36.92-48.52L418.24 131l-21.31 28L431 143.36l10 12.42-22.73 29.86 32-14.69 7.83 13.43Z"/><path d="M141.75 151.61a6.84 6.84 0 0 0-9.24-8c-1.91.8-3.06 2.48-4.32 4.07-4.8 6-9.59 11.95-14.35 17.94a16.91 16.91 0 0 0-1.08 1.37l2.93 2.35c2.56 2.08 5.15 4.11 7.7 6.17 2.54-3.15 5-6.31 7.56-9.47s5.05-6.28 7.58-9.42c1.25-1.62 2.66-3.02 3.22-5.01Z"/><path d="M272.6 146v134.39H138.23A138.11 138.11 0 0 1 272.6 146Z" style="fill:url(#a)"/><path d="M407 280.39a138.15 138.15 0 0 1-134.4 134.4v-134.4Z" style="fill:url(#b)"/></g></svg>