<svg id="Capa_1" enable-background="new 0 0 512 512" height="512" viewBox="0 0 512 512" width="512" xmlns="http://www.w3.org/2000/svg"><g><path d="m177 0h-19c-24.81 0-45 20.19-45 45v70.185l64-.185z"/><path d="m207 0h98v115h-98z"/><path d="m399 45c0-24.81-20.19-45-45-45h-19v115l64 .185z"/><path d="m143 423h226v89h-226z"/><path d="m359 145v141.186c26.892-11.673 58.857-3.267 76.397 21.45 2.317-5.419 3.603-11.38 3.603-17.636v-100c0-24.813-20.187-45-45-45z"/><path d="m351 344v49h66v-49c0-18.196-14.804-33-33-33s-33 14.804-33 33z"/><path d="m128 311c-18.196 0-33 14.804-33 33v49h66v-49c0-18.196-14.804-33-33-33z"/><path d="m153 286.186v-141.186h-35c-24.813 0-45 20.187-45 45v100c0 6.256 1.286 12.217 3.603 17.635 17.513-24.679 49.467-33.139 76.397-21.449z"/><path d="m191 393h130v-49c0-11.131 2.913-21.589 8-30.674v-121.885l-26.2 30.963v56.323c0 8.284-6.716 15-15 15h-64c-8.284 0-15-6.716-15-15v-56.323l-25.8-30.49v121.413c5.087 9.084 8 19.543 8 30.674z"/><path d="m282.69 199.728 46.308-54.728h-145.998c0 .731-3.529-3.701 45.911 54.728z"/><path d="m238.8 229.728h34v34h-34z"/><path d="m457.658 431.755-3.502-8.755h-55.156v81.391l48.884-37.554c10.769-8.133 14.789-22.543 9.774-35.082z"/><path d="m54.342 431.756c-5.015 12.538-.995 26.948 9.774 35.081l48.884 37.554v-81.391h-55.155z"/></g></svg>