<?xml version="1.0" encoding="iso-8859-1"?>
<!-- Generator: Adobe Illustrator 19.0.0, SVG Export Plug-In . SVG Version: 6.00 Build 0)  -->
<svg version="1.1" id="Capa_1" xmlns="http://www.w3.org/2000/svg" xmlns:xlink="http://www.w3.org/1999/xlink" x="0px" y="0px"
	 viewBox="0 0 512 512" style="enable-background:new 0 0 512 512;" xml:space="preserve">
<g>
	<g>
		<path d="M90,362c0,16.538,13.462,30,30,30s30-13.462,30-30H90z"/>
	</g>
</g>
<g>
	<g>
		<path d="M498.816,206.606L305.395,13.184C296.898,4.688,285.59,0,273.578,0H45C20.186,0,0,20.186,0,45v422
			c0,24.814,20.186,45,45,45h241c5.684,0,10.869-3.208,13.418-8.291C333.856,434.803,404.114,392,481.165,392H497
			c8.291,0,15-6.709,15-15V238.422C512,226.41,507.312,215.102,498.816,206.606z M180,362c0,33.091-26.909,60-60,60
			s-60-26.909-60-60v-15c0-8.291,6.709-15,15-15h90c8.291,0,15,6.709,15,15V362z M437,271H75c-8.291,0-15-6.709-15-15V75
			c0-8.291,6.709-15,15-15h186.142c3.984,0,7.793,1.582,10.605,4.395l175.858,175.858C455.644,248.291,453.628,271,437,271z"/>
	</g>
</g>
<g>
	<g>
		<polygon points="254.931,90 90,90 90,241 405.931,241 		"/>
	</g>
</g>
<g>
</g>
<g>
</g>
<g>
</g>
<g>
</g>
<g>
</g>
<g>
</g>
<g>
</g>
<g>
</g>
<g>
</g>
<g>
</g>
<g>
</g>
<g>
</g>
<g>
</g>
<g>
</g>
<g>
</g>
</svg>
