<?xml version="1.0" encoding="iso-8859-1"?>
<!-- Generator: Adobe Illustrator 16.0.0, SVG Export Plug-In . SVG Version: 6.00 Build 0)  -->
<!DOCTYPE svg PUBLIC "-//W3C//DTD SVG 1.1//EN" "http://www.w3.org/Graphics/SVG/1.1/DTD/svg11.dtd">
<svg version="1.1" id="Capa_1" xmlns="http://www.w3.org/2000/svg" xmlns:xlink="http://www.w3.org/1999/xlink" x="0px" y="0px"
	 width="79.536px" height="79.536px" viewBox="0 0 79.536 79.536" style="enable-background:new 0 0 79.536 79.536;"
	 xml:space="preserve">
<g>
	<path style="fill:#010002;" d="M39.545,0H4.72C2.706,0,1.072,1.634,1.072,3.648v74.427h42.116V3.648
		C43.188,1.634,41.562,0,39.545,0z M37.945,27.827H6.323V7.115h31.623V27.827z M59.926,79.536c-8.647,0-13.888-5.95-14.385-16.321
		c-0.207-4.091,0.818-8.591,1.9-13.36c0.813-3.583,1.662-7.28,2.061-11.083c0.399-3.814-0.201-5.111-0.595-5.546
		c-0.73-0.813-2.879-0.813-4.956-0.813h-1.022v-5.056h1.022c3.035,0,6.479,0,8.715,2.486c1.75,1.937,2.341,4.947,1.869,9.46
		c-0.43,4.091-1.305,7.954-2.153,11.682c-1,4.417-1.952,8.596-1.792,11.982c0.367,7.643,3.511,11.512,9.336,11.512
		c6.4,0,9.647-4.045,9.647-12.02c0-6.597-2.051-11.733-3.413-15.13l-0.533-1.367c-1.413-3.702-1.6-7.021-1.745-12.052
		c-0.145-4.883-0.088-10.105,1.264-15.266c1.362-5.19,4.163-7.72,8.798-11.909l1.118-1.018l3.402,3.744l-1.134,1.023
		c-4.334,3.922-6.312,5.711-7.291,9.447c-1.191,4.536-1.228,9.328-1.104,13.831c0.141,4.908,0.332,7.539,1.419,10.397l0.508,1.284
		c1.419,3.531,3.77,9.435,3.77,17.005C74.627,73.151,69.128,79.536,59.926,79.536z M66.435,34.769l-0.129-5.059
		c0,0,3.92-0.101,6.142-0.127c0.051-0.896,0.051-2.296,0.051-3.764v-0.754c0-6.05-0.947-6.851-2.034-7.785
		c-0.399-0.334-0.793-0.684-1.176-1.103l3.718-3.418c0.238,0.259,0.497,0.466,0.74,0.673c2.16,1.843,3.807,3.866,3.807,11.627v0.753
		c0,2.835,0.005,4.401-0.249,5.592c-0.435,2.048-1.843,3.226-3.862,3.226C71.8,34.631,66.441,34.769,66.435,34.769z"/>
</g>
<g>
</g>
<g>
</g>
<g>
</g>
<g>
</g>
<g>
</g>
<g>
</g>
<g>
</g>
<g>
</g>
<g>
</g>
<g>
</g>
<g>
</g>
<g>
</g>
<g>
</g>
<g>
</g>
<g>
</g>
</svg>
