<?xml version="1.0" encoding="utf-8"?>
<!-- Generator: Adobe Illustrator 24.1.2, SVG Export Plug-In . SVG Version: 6.00 Build 0)  -->
<svg version="1.1" id="Warstwa_3" xmlns="http://www.w3.org/2000/svg" xmlns:xlink="http://www.w3.org/1999/xlink" x="0px" y="0px"
	 viewBox="0 0 430 430" style="enable-background:new 0 0 430 430;" xml:space="preserve">
<style type="text/css">
	.st0{fill:#121331;}
	.st1{fill:#08A88A;}
	.st2{fill:none;stroke:#08A88A;stroke-width:12.25;stroke-miterlimit:14;}
	.st3{fill-opacity:0;}
	.st4{fill:#131432;}
	.st5{fill:none;}
</style>
<g>
	<path class="st0" d="M215.02,374.8c-1.55,0-3.1-0.56-4.32-1.69c-3.62-3.34-88.94-82.59-112.59-155.79c0,0,0,0,0,0
		c-4.17-12.91-6.29-26.02-6.29-38.96c0-33.9,14.19-66.65,38.93-89.85c25.1-23.53,57.92-35.27,92.42-33.05
		c60.99,3.93,110.3,52.86,114.69,113.83c1.09,15.06-0.63,30.29-5.09,45.28c-19,63.77-109.41,154.54-113.25,158.37
		C218.28,374.18,216.65,374.8,215.02,374.8z M110.23,213.41c19.62,60.71,86.63,128.6,104.63,146.07
		c18.44-19.1,89.91-95.54,105.7-148.54c4.02-13.51,5.57-27.21,4.59-40.72c-3.94-54.65-48.13-98.52-102.8-102.03
		c-30.94-1.99-60.38,8.53-82.89,29.63c-22.51,21.11-34.91,49.72-34.91,80.56C104.56,189.98,106.47,201.77,110.23,213.41
		L110.23,213.41z"/>
	<path class="st1" d="M215.01,239.7c-33.82,0-61.33-27.51-61.33-61.33c0-33.82,27.51-61.33,61.33-61.33s61.33,27.51,61.33,61.33
		C276.34,212.19,248.83,239.7,215.01,239.7z M215.01,129.78c-26.79,0-48.59,21.8-48.59,48.59c0,26.79,21.8,48.59,48.59,48.59
		s48.59-21.8,48.59-48.59C263.6,151.58,241.81,129.78,215.01,129.78z"/>
</g>
</svg>
