<svg xmlns="http://www.w3.org/2000/svg" viewBox="0 0 150.2 150.2" width="20" height="20">
    <path d="M62.2 125.1h25.9v6.4H62.2zm3.1 9h19.5v13.3H65.3zM36.7 95.5h76.7v3.1H36.7zm-4.1 6.1h84.9v3.1H32.6zm0-11.9h84.9v3.1H32.6zm56 22c-4.3 3.9-4.3 10.9-4.3 10.9H65.9s0-7-4.3-10.9c-3-2.7-6.7-3.3-6.7-3.3-2.4-.4-2.4-.8-2.4-1h44.8s0 .4-2.4 1c.2 0-3.5.6-6.3 3.3zm-51.5-4h9.1c0 5.5-3.6 8-9.1 6.7v-6.7zm32.7-88.2c3.7-7.2 4.3-18.2 5.2-18.3 1 .2 1.5 11.2 5.2 18.3 3.6 6.8 10.9 12.7 10.6 13.3-.6.8-4.6-1.3-6.7-2.4-3.3-1.5-6.1-2.7-6.1-2.7S76.7 45 81 61.1c3.6 13.1 11.6 25.2 12.5 26.1H83c-.4-.6-.6-1.2-1-1.5-3-5.1-4.9-9.5-6.8-17-1.9 7.6-4 11.9-7 17-.4.6-.6 1.2-1 1.5H56.7c.8-1 8.9-13.1 12.5-26.1 4.3-16 3-33.4 3-33.4s-2.7 1.2-6.1 2.7c-2.1 1-6.3 3.1-6.8 2.4-.4-.6 7.1-6.4 10.5-13.3zM36.7 87.3c0-1.3-.8-18.9-4.9-32.8-4.5-15.2-13.7-24.1-13.1-25.2.6-.8 8 .8 13.7 4.5 6.1 4 11.9 10.9 11.5 11.5-.2.4-2.4-1.3-6.1-2.7-3.9-1.3-5.7-1.2-5.7-1.2s6.4 10.7 9.7 22.2c2.7 9.7 4 22.2 4 23.4h-9.4v.2l.3.1zm76.8 0c0-1.3.8-18.9 4.9-32.8 4.5-15.2 13.7-24.1 13.1-25.2-.6-.8-8 .8-13.7 4.5-6.1 4-11.9 10.9-11.5 11.5.2.4 2.4-1.3 6.1-2.7 3.9-1.3 5.7-1.2 5.7-1.2s-6.4 10.7-9.7 22.2c-2.7 9.7-4 22.2-4 23.4h9.4v.2l-.3.1zm-.5 20.4h-9.1c0 5.5 3.6 8 9.1 6.7v-6.7z"/>
</svg>
