<?xml version="1.0" ?><svg viewBox="0 0 550 550" xmlns="http://www.w3.org/2000/svg"><title/><g data-name="Layer 51" id="Layer_51"><path d="M286,123.2c0-3-.91-3.1-1.15-.11l-9.56,142.59,9.52,5.57Z"/><path d="M241.35,299l40.16-22.25-9.12-5.07L240.22,298C238.43,299.54,239.23,300.18,241.35,299Z"/><path d="M286.69,46.83C159.34,46.77,56.05,149,56.05,275S159.27,503.13,286.69,503.17,517.42,401,517.42,275,414.2,46.83,286.69,46.83Zm0,447.65c-86.67,0-154.68-45.05-187.06-107l5-1.83c8.42,13.72,19.41,25.79,34.18,42.1,18.21,20,75.78,58.63,147.83,58.63A213.36,213.36,0,0,0,468.5,385.86c2.91-.82,3.84-2.08,2.87-4.61,17.32-30.51,29.08-68.84,29.08-106.29,0-23.59-3.46-42.78-8.95-59.93a236.75,236.75,0,0,0-12.38-30.86,5.42,5.42,0,0,1-.81-2.94,6.89,6.89,0,0,1,2.05,2.5c3.35,6.11,10.85,21.08,14.37,30.82,4.75,13,13.22,31,13.22,60.41C508,395,409.65,494.55,286.69,494.48ZM102,382.18l161.53-116.1-13.82-7.88L105.8,377.82c-16.16-29.29-27.39-66.89-27.39-102.65,0-113.25,90.16-204.93,204.32-205.63L253.28,252.69l13.76,8,18.5-191.12c.35-2.41,2-2.41,2,0l1.09,201.54,32.78-19.24L290,69.5c112.2,3,205.16,93.49,205.16,205.31,0,36.06-10.9,73.72-27.4,103.19L324,258.27l-13.84,7.9L464.68,378.22c3.71,2.64,2.57,3.84-1.38,1.64L289.79,279.8v37.5L463.7,383.74c-36.45,59.44-102.19,97.46-177.46,97.46-75.43,0-140.11-38-176.56-97.53L283.9,317.18V279.69L103.48,383.9C99.2,386.26,98.06,384.94,102,382.18Zm-4.44,2.22c-7.63-15.81-15.67-38.09-19-55.72a6.51,6.51,0,0,1,.12-2.79,10.11,10.11,0,0,1,1.27,2.71c5.23,16.18,9.8,30.73,21.73,52.59ZM507.62,236.29a9.4,9.4,0,0,1-1.26-2.6c-16.86-52-31.22-72.43-58.9-102.81-36.47-40-96-70.93-159.36-71C167,59.87,68.76,158.14,68.76,279.22c0,36,7.85,67.09,14.16,82.71,7.4,18.11,20.2,42.5,20.84,43.6a6.5,6.5,0,0,1,.68,2.9,8.6,8.6,0,0,1-2.07-2.4C98.7,400.7,83.66,373.61,79,361.77,68.76,336,61.24,307.89,61.24,278.39c0-124.8,101-226,225.89-226,111.56,0,201.5,77.5,220.49,181.23A6.39,6.39,0,0,1,507.62,236.29Z"/><path d="M420.56,350.93l-118.9-79.68-9.78,5.59,128.11,75C422.27,353.15,422.75,352.34,420.56,350.93Z"/></g></svg>